<svg xmlns="http://www.w3.org/2000/svg" viewBox="0 0 121.58 121.58"><g id="Layer_2" data-name="Layer 2"><g id="Layer_1-2" data-name="Layer 1"><path d="M62.55,121.58H60.8a60.79,60.79,0,1,1,60.78-60.8v1.76a57.34,57.34,0,1,0-59,59Z" fill="#f0b90b" fill-rule="evenodd"/><path d="M103.23,44c.74,6-40.68,28.7-40.68,28.7s-7.24-2.39-18-.25l-.4-3.31a55.41,55.41,0,0,0,16.74-5C70.14,59.78,103.23,44,103.23,44Z" fill="#f0b90b"/><path d="M44.55,69a6.6,6.6,0,0,0-.75-1.8c-2.25-3.88-7.57-5-11.87-2.49s-6,7.67-3.72,11.55,7.58,5,11.88,2.49a9.31,9.31,0,0,0,4.59-6.43A7.6,7.6,0,0,0,44.55,69Zm-5.92,7.25c-2.91,1.68-6.44,1-7.88-1.43S30.49,69,33.39,67.3s6.44-1,7.88,1.44S41.53,74.58,38.63,76.29Z" fill="#f0b90b"/><path d="M63.38,22.4C57.76,24.75,58.56,72,58.56,72s5.66,5.12,9.14,15.55l3.08-1.29a55.64,55.64,0,0,1-4-17C66,59,63.38,22.4,63.38,22.4Z" fill="#f0b90b"/><path d="M72.55,85.56a7.14,7.14,0,0,0-2,.24,7.9,7.9,0,0,0-3,1.52,9.37,9.37,0,0,0-3.31,7.18c0,5,3.55,9,8,9.09a8.22,8.22,0,0,0,6.79-4,9.59,9.59,0,0,0,1.41-5C80.63,89.67,77,85.6,72.55,85.56Zm5.11,9.06c0,3.36-2.39,6.07-5.25,6s-5.18-2.78-5.14-6.13,2.38-6.07,5.24-6,5.18,2.8,5.15,6.13Z" fill="#f0b90b"/><path d="M84.51,102c-.58,1.17-.87,1.76-1.46,2.93A23.45,23.45,0,0,1,78,101l1-1.44A21.72,21.72,0,0,0,84.51,102Z" fill="#f0b90b"/><circle cx="62.65" cy="67.46" r="1.88" fill="#0b0e11"/></g></g></svg>